#!OML:ASF H:\Terrain\Patient Classification 1\Terrain2\Thursday\justin.ASF
:FULLY-SPECIFIED
:DEGREES
3908
root 1.23745 20.1512 11.2184 -283.021 99.9462 -278.887
lowerback 8.08718 1.4996 8.69574
upperback 3.0495 2.93134 3.85658
thorax -1.13325 1.57515 -1.12235
lowerneck -13.6006 -2.66527 -8.5705
upperneck 37.4315 -0.120498 1.39035
head 15.5291 -0.509112 2.25069
rclavicle -3.80673e-014 5.1684e-015
rhumerus -30.8239 0.416915 -82.9598
rradius 35.4041
rwrist -13.6112
rhand -20.6005 11.8258
rfingers 7.12502
rthumb 5.76009 -18.076
lclavicle -3.80673e-014 5.1684e-015
lhumerus -40.4204 8.67449 82.0696
lradius 24.7876
lwrist -3.03895
lhand -15.7469 21.4944
lfingers 7.12502
lthumb 10.4443 51.2149
rfemur 6.64995 -0.756091 33.5976
rtibia 28.2056
rfoot -24.9719 3.14592
rtoes 17.083
lfemur -28.2025 2.72367 -9.33891
ltibia 37.2303
lfoot 15.9828 -1.98028
ltoes -2.71724
3909
root 1.34388 20.1166 11.2106 -283.362 98.9613 -279.313
lowerback 7.81296 1.53551 7.62477
upperback 3.09043 2.84333 3.66163
thorax -0.990956 1.52496 -0.717217
lowerneck -13.804 -2.56222 -8.61564
upperneck 37.5519 0.0813272 1.37986
head 15.6255 -0.436186 2.29202
rclavicle -7.65321e-015 -4.01545e-014
rhumerus -30.7698 1.22191 -82.9817
rradius 35.9766
rwrist -14.1926
rhand -20.5486 12.0407
rfingers 7.12502
rthumb 5.81018 -17.8597
lclavicle -7.65321e-015 -4.01545e-014
lhumerus -40.6143 9.05589 82.0233
lradius 24.7256
lwrist -3.37052
lhand -15.423 21.8466
lfingers 7.12502
lthumb 10.7567 51.5512
rfemur 6.39497 -0.950925 32.4159
rtibia 29.4319
rfoot -25.6484 3.6608
rtoes 18.5159
lfemur -27.5374 2.10734 -10.3403
ltibia 35.0967
lfoot 16.6976 -0.954475
ltoes -1.17389
3910
root 1.45267 20.0554 11.2112 -282.489 99.2821 -278.233
lowerback 7.81349 1.5382 7.888
upperback 3.11013 2.87412 3.78295
thorax -0.961405 1.54561 -0.73837
lowerneck -13.8749 -2.57381 -8.67507
upperneck 37.7006 0.118852 1.35684
head 15.7173 -0.432686 2.304
rclavicle 2.35063e-014 9.93923e-015
rhumerus -30.9158 1.69565 -83.018
rradius 36.4711
rwrist -14.6507
rhand -20.5065 12.2459
rfingers 7.12502
rthumb 5.85083 -17.6534
lclavicle 2.35063e-014 9.93923e-015
lhumerus -40.9996 9.28572 81.9129
lradius 24.758
lwrist -3.79634
lhand -15.4069 21.9713
lfingers 7.12502
lthumb 10.7723 51.675
rfemur 6.5156 -1.28437 32.7561
rtibia 30.4724
rfoot -26.3583 3.3713
rtoes 16.0762
lfemur -26.7438 1.63925 -9.84101
ltibia 33.2371
lfoot 17.2512 -0.239879
ltoes 0.464748
3911
root 1.56248 19.9844 11.2058 -281.673 100.024 -277.175
lowerback 7.79095 1.49047 8.65316
upperback 3.14195 2.87637 3.91815
thorax -0.882341 1.55952 -1.01678
lowerneck -13.7353 -2.57849 -8.58415
upperneck 37.5869 0.0118598 1.46307
head 15.6293 -0.448387 2.3116
rclavicle 2.16178e-014 7.95139e-016
rhumerus -30.9464 1.65906 -83.1037
rradius 36.7133
rwrist -14.8367
rhand -20.7679 12.2258
rfingers 7.12502
rthumb 5.59847 -17.6802
lclavicle 2.16178e-014 7.95139e-016
lhumerus -41.2011 8.94519 81.9174
lradius 24.684
lwrist -3.53051
lhand -15.4846 21.8139
lfingers 7.12502
lthumb 10.6973 51.5215
rfemur 6.55479 -1.55929 33.5643
rtibia 31.7881
rfoot -27.2707 2.41633
rtoes 10.2305
lfemur -25.8854 1.27492 -9.00605
ltibia 31.4108
lfoot 17.9345 -0.109275
ltoes -0.212718
3912
root 1.67139 19.8992 11.1973 -281.148 100.016 -276.532
lowerback 7.68431 1.5412 8.61419
upperback 3.15042 2.92481 3.89427
thorax -0.811167 1.58536 -1.01914
lowerneck -13.5091 -2.56351 -8.51429
upperneck 37.4024 -0.0701022 1.56677
head 15.4844 -0.45505 2.32372
rclavicle 2.6662e-014 2.44505e-014
rhumerus -30.8812 1.28606 -82.9926
rradius 36.8421
rwrist -14.6145
rhand -21.0759 12.2928
rfingers 7.12502
rthumb 5.30107 -17.6209
lclavicle 2.6662e-014 2.44505e-014
lhumerus -41.3829 8.54391 82.0496
lradius 24.676
lwrist -3.20224
lhand -15.5434 21.7661
lfingers 7.12502
lthumb 10.6406 51.4767
rfemur 6.34587 -1.90881 33.5607
rtibia 33.0706
rfoot -28.0428 0.491834
rtoes 0.0232962
lfemur -25.239 1.09091 -9.0601
ltibia 29.8464
lfoot 18.7184 -0.577268
ltoes -1.89588
3913
root 1.78271 19.8762 11.1956 -280.66 99.6614 -276.035
lowerback 7.52715 1.57928 8.11898
upperback 3.13667 2.91408 3.83963
thorax -0.762725 1.57482 -0.797391
lowerneck -13.5006 -2.50739 -8.48841
upperneck 37.4189 0.0311932 1.50593
head 15.484 -0.416784 2.3105
rclavicle -1.98536e-014 -2.98177e-014
rhumerus -30.8749 1.30797 -82.9279
rradius 37.1149
rwrist -14.4907
rhand -21.2433 12.3603
rfingers 7.12502
rthumb 5.13944 -17.5573
lclavicle -1.98536e-014 -2.98177e-014
lhumerus -41.6606 8.95887 81.8671
lradius 24.7163
lwrist -3.71656
lhand -15.6499 21.6691
lfingers 7.12502
lthumb 10.5378 51.3849
rfemur 6.39684 -1.34693 33.1689
rtibia 34.4638
rfoot -28.7333 2.98041
rtoes 11.373
lfemur -24.6172 1.10859 -9.44996
ltibia 28.4256
lfoot 19.249 -0.412973
ltoes -2.29001
3914
root 1.89556 19.816 11.1902 -280.263 99.4765 -275.609
lowerback 7.33737 1.55901 7.78655
upperback 3.16963 2.83767 3.84221
thorax -0.646088 1.53745 -0.598433
lowerneck -13.6414 -2.46638 -8.56778
upperneck 37.4931 0.115774 1.54932
head 15.5498 -0.390288 2.35963
rclavicle 7.67806e-015 -3.97569e-015
rhumerus -30.8343 1.81548 -82.9566
rradius 37.4395
rwrist -14.9157
rhand -21.246 11.9691
rfingers 7.12502
rthumb 5.13683 -17.9486
lclavicle 7.67806e-015 -3.97569e-015
lhumerus -42.1409 9.81897 81.4914
lradius 25.2977
lwrist -4.48765
lhand -15.6515 22.0467
lfingers 7.12502
lthumb 10.5363 51.7627
rfemur 6.2694 -1.26002 32.954
rtibia 35.8003
rfoot -29.3667 3.45022
rtoes 12.6049
lfemur -24.1206 0.984647 -9.64811
ltibia 27.2097
lfoot 19.6478 0.318548
ltoes -4.63465
3915
root 2.00645 19.7247 11.1836 -279.633 99.7378 -274.848
lowerback 7.24894 1.46561 7.8839
upperback 3.2076 2.71695 3.99254
thorax -0.568266 1.48347 -0.483927
lowerneck -13.7917 -2.4257 -8.67511
upperneck 37.6153 0.220668 1.57994
head 15.6416 -0.361486 2.41348
rclavicle -1.37907e-014 -9.54166e-015
rhumerus -30.7264 2.30995 -82.9593
rradius 37.6268
rwrist -15.2774
rhand -21.2449 11.6652
rfingers 7.12502
rthumb 5.13786 -18.2525
lclavicle -1.37907e-014 -9.54166e-015
lhumerus -42.6171 10.5008 81.2444
lradius 25.8704
lwrist -5.05032
lhand -15.2047 22.6063
lfingers 7.12502
lthumb 10.9673 52.2998
rfemur 6.02585 -1.55316 33.2336
rtibia 37.3094
rfoot -30.1442 1.43839
rtoes 2.26442
lfemur -23.5573 0.942166 -9.41581
ltibia 26.0291
lfoot 20.2893 0.0587177
ltoes -8.5355
3916
root 2.12084 19.6432 11.1714 -279.432 99.9933 -274.533
lowerback 7.1417 1.37991 8.14376
upperback 3.19816 2.61217 4.03571
thorax -0.514757 1.43595 -0.571263
lowerneck -13.8227 -2.36117 -8.53848
upperneck 37.7538 0.336839 1.47447
head 15.7102 -0.308242 2.36831
rclavicle -6.13748e-015 7.15625e-015
rhumerus -30.6675 2.16371 -82.9526
rradius 37.6776
rwrist -15.0696
rhand -21.2534 11.7157
rfingers 7.12502
rthumb 5.12969 -18.2022
lclavicle -6.13748e-015 7.15625e-015
lhumerus -42.4446 10.0069 81.4426
lradius 25.2409
lwrist -4.70949
lhand -14.7602 22.0845
lfingers 7.12502
lthumb 11.396 51.7548
rfemur 6.0087 -1.82115 33.379
rtibia 38.6217
rfoot -30.6667 0.336967
rtoes -4.37446
lfemur -23.092 0.686802 -9.20424
ltibia 25.2735
lfoot 20.7587 0.0671939
ltoes -7.93688
3917
root 2.23997 19.576 11.154 -279.13 99.9876 -274.149
lowerback 7.03537 1.40403 8.21663
upperback 3.1366 2.63484 3.95751
thorax -0.510655 1.4449 -0.691309
lowerneck -13.6732 -2.31053 -8.30078
upperneck 37.792 0.361481 1.40959
head 15.6883 -0.268548 2.3037
rclavicle 3.44394e-014 5.1684e-014
rhumerus -30.7858 1.75399 -82.9102
rradius 37.7744
rwrist -14.9238
rhand -21.0598 11.7544
rfingers 7.12502
rthumb 5.31657 -18.1589
lclavicle 3.44394e-014 5.1684e-014
lhumerus -42.3188 8.03963 82.387
lradius 24.9985
lwrist -2.67173
lhand -14.9609 21.9663
lfingers 7.12502
lthumb 11.2025 51.6472
rfemur 5.99571 -1.99921 33.1624
rtibia 39.9794
rfoot -31.2388 0.697234
rtoes -5.74455
lfemur -22.6019 0.28467 -9.2228
ltibia 24.6354
lfoot 21.0019 1.06739
ltoes -5.7882
3918
root 2.35704 19.4999 11.1476 -278.566 99.9919 -273.556
lowerback 6.93827 1.41087 8.00976
upperback 3.06035 2.62356 4.00956
thorax -0.549577 1.43326 -0.521643
lowerneck -13.5405 -2.24825 -8.34254
upperneck 37.7206 0.411828 1.50298
head 15.6155 -0.238033 2.35687
rclavicle 4.7758e-014 6.22196e-014
rhumerus -30.8949 1.78461 -82.8596
rradius 37.9456
rwrist -15.1704
rhand -21.0449 11.6846
rfingers 7.12502
rthumb 5.33102 -18.2283
lclavicle 4.7758e-014 6.22196e-014
lhumerus -42.5833 7.07186 82.9645
lradius 25.3297
lwrist -1.53174
lhand -15.3053 22.5518
lfingers 7.12502
lthumb 10.8703 52.2505
rfemur 5.66994 -2.30592 33.0819
rtibia 41.4487
rfoot -31.4954 1.47538
rtoes -3.26469
lfemur -22.1355 0.212236 -9.20704
ltibia 23.9081
lfoot 21.3347 1.54322
ltoes -6.77828
3919
root 2.47375 19.4166 11.1513 -278.315 99.8424 -273.248
lowerback 6.85833 1.44448 7.64047
upperback 3.01841 2.63257 3.97544
thorax -0.564446 1.43114 -0.352764
lowerneck -13.4431 -2.24171 -8.51246
upperneck 37.6122 0.350331 1.75646
head 15.5397 -0.25268 2.48116
rclavicle -1.20513e-014 4.37326e-015
rhumerus -30.9142 1.57547 -82.83
rradius 37.9963
rwrist -15.3714
rhand -21.2592 11.6457
rfingers 7.12502
rthumb 5.12405 -18.2723
lclavicle -1.20513e-014 4.37326e-015
lhumerus -42.616 7.59755 82.5615
lradius 25.0312
lwrist -2.2568
lhand -15.3554 22.4267
lfingers 7.12502
lthumb 10.822 52.1279
rfemur 5.40746 -2.41481 32.9553
rtibia 42.9086
rfoot -31.9697 0.326942
rtoes -8.81554
lfemur -21.6326 0.367974 -9.40136
ltibia 23.2564
lfoot 21.7812 1.78984
ltoes -6.91172
3920
root 2.59327 19.3351 11.1463 -278.039 99.6897 -272.812
lowerback 6.81634 1.46921 7.47101
upperback 3.04419 2.64236 3.88087
thorax -0.517229 1.43516 -0.355695
lowerneck -13.4714 -2.26066 -8.60156
upperneck 37.5986 0.274138 1.93815
head 15.5431 -0.274385 2.56167
rclavicle -4.24902e-015 -1.27222e-014
rhumerus -30.9177 1.20399 -82.7862
rradius 37.9683
rwrist -15.3428
rhand -21.4062 11.8549
rfingers 7.12502
rthumb 4.98213 -18.0666
lclavicle -4.24902e-015 -1.27222e-014
lhumerus -42.608 8.07371 82.1723
lradius 24.8068
lwrist -2.82632
lhand -15.4946 22.136
lfingers 7.12502
lthumb 10.6877 51.8442
rfemur 5.41318 -2.37066 32.7815
rtibia 44.3333
rfoot -32.3671 -0.266557
rtoes -11.741
lfemur -21.0241 0.826531 -9.7399
ltibia 22.793
lfoot 22.1413 1.21723
ltoes -8.18295
3921
root 2.71931 19.2589 11.1316 -278.053 99.7513 -272.674
lowerback 6.65384 1.42575 7.43599
upperback 3.11301 2.56419 3.94798
thorax -0.364925 1.40264 -0.254635
lowerneck -13.5869 -2.23775 -8.48909
upperneck 37.68 0.350453 1.78281
head 15.6071 -0.249916 2.49107
rclavicle 6.21202e-015 1.05356e-014
rhumerus -30.9091 1.07773 -82.6315
rradius 37.9715
rwrist -15.2362
rhand -21.3881 11.9752
rfingers 7.12502
rthumb 4.99962 -17.9458
lclavicle 6.21202e-015 1.05356e-014
lhumerus -42.6568 8.30358 82.1628
lradius 24.7748
lwrist -2.98614
lhand -15.6067 22.0694
lfingers 7.12502
lthumb 10.5796 51.7831
rfemur 5.44443 -2.53519 32.711
rtibia 45.7409
rfoot -32.7192 -0.299661
rtoes -12.5526
lfemur -20.3609 1.05989 -9.84147
ltibia 22.4481
lfoot 22.2255 0.591011
ltoes -9.24513
